<svg width="1147" height="309" viewBox="0 0 1147 309" fill="none" xmlns="http://www.w3.org/2000/svg">
<path d="M486.084 197.5L473.559 172.617H403.586L391.061 197.5H357.995L418.282 80.6H458.863L519.317 197.5H486.084ZM414.775 150.239H462.37L438.656 102.811L414.775 150.239ZM556.562 172.283H646.742V197.5H526.502V80.6H556.562V172.283ZM750.289 80.6C776.842 80.6 795.045 97.467 795.045 123.519C795.045 149.571 776.842 166.271 750.289 166.271H688.499V197.5H658.439V80.6H750.289ZM741.939 141.054C750.957 141.054 764.985 141.054 764.985 123.519C764.985 105.817 750.957 105.817 741.939 105.817H688.499V141.054H741.939ZM931.119 80.6H961.179V197.5H931.119V151.742H835.929V197.5H805.869V80.6H835.929V126.358H931.119V80.6ZM1096.35 197.5L1083.83 172.617H1013.85L1001.33 197.5H968.263L1028.55 80.6H1069.13L1129.58 197.5H1096.35ZM1025.04 150.239H1072.64L1048.92 102.811L1025.04 150.239Z" fill="black"/>
<path d="M342.316 250.124H352.306C352.306 254.231 355.636 256.118 368.29 256.118C378.779 256.118 381.943 254.953 381.943 251.9C381.943 248.681 379.723 248.126 367.124 247.516C350.197 246.739 343.481 244.075 343.481 235.361C343.481 226.814 352.195 224.095 366.736 224.095C381.388 224.095 390.268 227.758 390.268 237.359H380.278C380.278 233.086 376.004 232.031 365.626 232.031C355.802 232.031 353.471 232.975 353.471 235.861C353.471 238.858 355.802 239.413 367.124 240.079C382.442 240.911 391.933 241.744 391.933 251.567C391.933 261.946 382.109 264.055 367.735 264.055C351.806 264.055 342.316 261.335 342.316 250.124ZM393.014 244.019C393.014 231.143 400.34 224.095 417.434 224.095C432.918 224.095 440.688 229.978 441.687 241.189H431.531C430.587 234.917 425.759 232.475 417.434 232.475C407.277 232.475 403.004 236.083 403.004 244.019C403.004 252.011 407.333 255.674 417.434 255.674C425.703 255.674 430.587 253.177 431.531 246.85H441.687C440.688 258.116 432.918 264.055 417.434 264.055C400.34 264.055 393.014 256.951 393.014 244.019ZM467.807 264.055C450.713 264.055 443.387 256.951 443.387 244.019C443.387 231.143 450.713 224.095 467.807 224.095C484.845 224.095 492.227 231.199 492.227 244.019C492.227 256.895 484.845 264.055 467.807 264.055ZM467.807 255.674C478.185 255.674 482.237 251.956 482.237 244.019C482.237 236.138 478.241 232.475 467.807 232.475C457.373 232.475 453.377 236.083 453.377 244.019C453.377 252.011 457.428 255.674 467.807 255.674ZM539.876 238.913C539.876 245.24 536.657 249.902 531.44 251.956L538.599 263.5H526.833L520.562 253.121H504.467V263.5H494.477V224.65H525.002C533.826 224.65 539.876 230.255 539.876 238.913ZM504.467 233.03V244.741H522.227C525.224 244.741 529.886 244.741 529.886 238.913C529.886 233.03 525.224 233.03 522.227 233.03H504.467ZM582.83 232.586H551.75V240.467H582.83V247.682H551.75V255.563H582.83V263.5H541.76V224.65H582.83V232.586ZM584.532 250.124H594.522C594.522 254.231 597.852 256.118 610.506 256.118C620.996 256.118 624.159 254.953 624.159 251.9C624.159 248.681 621.939 248.126 609.341 247.516C592.413 246.739 585.698 244.075 585.698 235.361C585.698 226.814 594.411 224.095 608.952 224.095C623.604 224.095 632.484 227.758 632.484 237.359H622.494C622.494 233.086 618.221 232.031 607.842 232.031C598.019 232.031 595.688 232.975 595.688 235.861C595.688 238.858 598.019 239.413 609.341 240.079C624.659 240.911 634.149 241.744 634.149 251.567C634.149 261.946 624.326 264.055 609.951 264.055C594.023 264.055 584.532 261.335 584.532 250.124Z" fill="black"/>
<path d="M709.046 224.65V233.03H690.176V263.5H680.186V233.03H661.316V224.65H709.046ZM756.619 238.913C756.619 245.24 753.4 249.902 748.183 251.956L755.343 263.5H743.577L737.305 253.121H721.21V263.5H711.22V224.65H741.745C750.57 224.65 756.619 230.255 756.619 238.913ZM721.21 233.03V244.741H738.97C741.967 244.741 746.629 244.741 746.629 238.913C746.629 233.03 741.967 233.03 738.97 233.03H721.21ZM798.898 263.5L794.735 255.23H771.481L767.318 263.5H756.329L776.365 224.65H789.851L809.942 263.5H798.898ZM775.199 247.793H791.017L783.136 232.031L775.199 247.793ZM821.21 224.65V263.5H811.22V224.65H821.21ZM864.598 224.65H874.588V263.5H860.991L834.517 234.362V263.5H824.527V224.65H838.069L864.598 253.843V224.65ZM887.931 224.65V263.5H877.941V224.65H887.931ZM931.319 224.65H941.309V263.5H927.712L901.238 234.362V263.5H891.248V224.65H904.79L931.319 253.843V224.65ZM967.597 249.181V242.687H992.239V263.5H984.858L984.414 257.395C980.751 261.391 974.923 264.055 966.654 264.055C952.335 264.055 943.566 256.951 943.566 244.075C943.566 231.199 952.335 224.095 968.319 224.095C983.859 224.095 991.629 230.144 992.239 239.801H982.083C981.528 236.86 978.864 232.475 968.319 232.475C955.332 232.475 953.556 239.635 953.556 244.297C953.556 249.014 955.387 256.34 968.319 256.34C977.976 256.34 981.861 252.122 982.083 249.181H967.597Z" fill="black"/>
<path d="M1028.86 255.119H1058.83V263.5H1018.87V224.65H1028.86V255.119ZM1095.18 224.65V233.03H1076.31V263.5H1066.32V233.03H1047.45V224.65H1095.18ZM1125.55 224.65C1135.59 224.65 1144.42 230.866 1144.42 244.075C1144.42 257.284 1135.59 263.5 1125.55 263.5H1097.35V224.65H1125.55ZM1121.77 255.119C1129.32 255.119 1134.43 253.51 1134.43 244.075C1134.43 234.64 1129.32 233.03 1121.77 233.03H1107.34V255.119H1121.77Z" fill="black"/>
<path d="M139.985 1C-16.8145 28.6 -10.6812 156.167 11.9855 216.5C14.7864 214.5 14.4851 206 13.9844 202C9.98438 193.6 7.65105 177.167 6.98438 170L16.9844 202L23.4844 190.5C-19.7156 66.5 83.1518 12.5 139.985 1Z" fill="#008DD2"/>
<path d="M65.4844 85.5C65.8844 76.3 71.3177 58 73.9844 50C81.2767 41.1724 92.8349 37.7768 98.323 37.0747L95.9844 70L65.4844 85.5Z" fill="#008DD2"/>
<path d="M69.9844 51C69.6172 51.1408 69.238 51.295 68.8477 51.4625C65.3214 55.3545 59.3165 79.8829 56.4844 93L28.4844 114.5C32.3637 76.0952 56.308 56.8462 68.8477 51.4625C69.2643 51.0027 69.6463 50.831 69.9844 51Z" fill="#008DD2"/>
<path d="M57.9844 151.5C54.3844 138.3 53.8177 115.333 53.9844 105.5C44.7844 110.7 33.8177 122.667 29.4844 128C28.6844 143.6 33.4844 161.833 35.9844 169L57.9844 151.5Z" fill="#008DD2"/>
<path d="M63.9845 95.2799C63.8118 95.286 63.8313 95.1785 63.9844 95C63.9844 95.0932 63.9844 95.1865 63.9845 95.2799C64.9405 95.2456 71.7857 91.729 94.4844 77.5L90.9844 130L66.9844 144.5C65.9894 135.711 64.0046 113.625 63.9845 95.2799Z" fill="#008DD2"/>
<path d="M150.984 8.5C110.984 11.7 89.651 26.1667 83.9844 33L98.9844 28V23.5L150.984 10L156.984 18.5L173.484 16.5C168.284 9.7 156.318 8.33333 150.984 8.5Z" fill="#008DD2"/>
<path d="M169.484 8.5C176.984 8 195.984 9.3 211.984 18.5C202.984 18.5 181.884 16.5 169.484 8.5Z" fill="#008DD2"/>
<path d="M277.984 74C249.984 26 211.984 18 196.484 20L229.984 48C232.384 49.2 243.984 67.5 249.484 76.5L277.984 74Z" fill="#008DD2"/>
<path d="M181.984 20H158.984L177.484 47.5L212.984 45C201.784 31.4 187.651 22.6667 181.984 20Z" fill="#008DD2"/>
<path d="M213.984 48L180.984 51L205.484 85L236.484 78.5C229.684 61.3 218.651 51 213.984 48Z" fill="#008DD2"/>
<path d="M290.484 50C264.484 17 231.483 2.62386 219.484 0C219.484 2.4 225.818 6 228.984 7.5C235.784 7.9 251.484 19.3333 258.484 25C262.818 29.3333 271.984 38.6 273.984 41C275.984 43.4 285.818 48 290.484 50Z" fill="#008DD2"/>
<path d="M182.484 153.5L148.484 177.5L147.484 197C167.884 185 187.651 176.333 194.984 173.5L182.484 153.5Z" fill="#008DD2"/>
<path d="M196.484 176.5C188.884 178.9 162.984 195.5 150.984 203.5C150.184 206.3 164.318 225.333 171.484 234.5L217.484 211L196.484 176.5Z" fill="#008DD2"/>
<path d="M164.984 237.5C162.184 236.3 151.484 222 146.484 215L144.984 254.5L164.984 238.5C166.151 238.667 167.784 238.7 164.984 237.5Z" fill="#008DD2"/>
<path d="M143.984 281L144.984 264C146.584 263.2 163.318 274.333 171.484 280C167.484 282.8 151.484 281.833 143.984 281Z" fill="#008DD2"/>
<path d="M169.984 244.5L150.484 261C169.684 283 190.484 281.167 198.484 277.5C220.084 270.7 237.484 259 243.484 254L227.984 228L226.984 254L222.484 220L218.984 215C212.984 216.6 188.151 231.333 176.484 238.5C174.484 241.7 187.651 256.833 194.484 264C192.884 264 177.484 251 169.984 244.5Z" fill="#008DD2"/>
<path d="M252.984 270C204.984 300.8 159.651 296.833 142.984 291C199.784 294.6 237.318 274.5 248.984 264L252.984 270Z" fill="#008DD2"/>
<path d="M140.484 305C192.884 319 239.651 291.167 256.484 275.5C210.484 305.1 161.651 304.5 142.984 300.5C139.384 301.7 139.818 304 140.484 305Z" fill="#008DD2"/>
<path d="M250.984 123L236.484 129L255.984 154.5C257.584 145.7 253.318 129.833 250.984 123Z" fill="#008DD2"/>
<path d="M267.484 173.5C269.884 147.1 265.484 126.833 262.984 120C264.184 116.8 284.151 112 293.984 110C302.784 158 292.651 189 286.484 198.5L267.484 173.5Z" fill="#008DD2"/>
<path d="M302.984 219.5L295.484 209.5C309.884 187.1 312.818 152.167 312.484 137.5C310.884 127.1 317.151 121.5 320.484 120C329.284 154.8 312.484 200.833 302.984 219.5Z" fill="#008DD2"/>
<path d="M282.488 50.5C291.288 57.7 298.488 70.8333 300.988 76.5C177.792 84.9 92.3209 141.333 64.985 168.5C23.385 200.5 24.3184 229.833 29.985 240.5L48.9861 212C27.7861 244.4 37.8194 259.167 45.4861 262.5C51.4861 212.5 119.319 164.667 152.486 147C157.286 143.8 159.487 145.667 159.987 147C65.9871 203.4 51.4871 251.167 55.9871 268C67.1871 272.8 81.3213 272 86.9884 271C40.5151 195.654 245.523 98.3214 308.488 97.5L311.988 119C335.588 100.2 355.155 96.8333 361.988 97.5L360.988 95.5C328.988 65.5 295.322 53 282.488 50.5Z" fill="#FECB0A"/>
</svg>
