<?xml version="1.0" encoding="UTF-8"?>
<svg id="Layer_1" data-name="Layer 1" xmlns="http://www.w3.org/2000/svg" xmlns:xlink="http://www.w3.org/1999/xlink" viewBox="0 0 421.18 225.58">
  <defs>
    <style>
      .cls-1 {
        fill: #0a1118;
      }

      .cls-2 {
        fill: url(#linear-gradient-2);
      }

      .cls-3 {
        fill: none;
        stroke: #231f20;
        stroke-miterlimit: 10;
        stroke-width: .25px;
      }

      .cls-4 {
        fill: url(#radial-gradient);
      }

      .cls-5 {
        fill: url(#radial-gradient-2);
      }

      .cls-6 {
        fill: url(#linear-gradient);
      }
    </style>
    <linearGradient id="linear-gradient" x1="225.27" y1="61.5" x2="299.86" y2="61.5" gradientUnits="userSpaceOnUse">
      <stop offset=".01" stop-color="#eae856"/>
      <stop offset="1" stop-color="#d3b72a"/>
    </linearGradient>
    <radialGradient id="radial-gradient" cx="155.03" cy="60.18" fx="155.03" fy="60.18" r="35.93" gradientUnits="userSpaceOnUse">
      <stop offset="0" stop-color="#8cc540"/>
      <stop offset="1" stop-color="#069f49"/>
    </radialGradient>
    <radialGradient id="radial-gradient-2" cx="209.25" cy="40.25" fx="209.25" fy="40.25" r="39.8" gradientUnits="userSpaceOnUse">
      <stop offset="0" stop-color="#28a8e0"/>
      <stop offset="1" stop-color="#0d61ae"/>
    </radialGradient>
    <linearGradient id="linear-gradient-2" x1="106.84" y1="110.24" x2="312.96" y2="110.24" gradientUnits="userSpaceOnUse">
      <stop offset="0" stop-color="#229ed9"/>
      <stop offset="1" stop-color="#1a6bb4"/>
    </linearGradient>
  </defs>
  <g>
    <path class="cls-1" d="m17.86,132.36h4.96l8.39,23.63h-3.69l-1.94-5.51h-10.47l-1.94,5.51h-3.69l8.39-23.63Zm6.84,15.36l-2.59-7.29-1.65-4.83h-.19l-1.65,4.83-2.66,7.29h8.75Z"/>
    <path class="cls-1" d="m34.13,132.36h3.53v20.45h11.28v3.18h-14.81v-23.63Z"/>
    <path class="cls-1" d="m52.08,132.36h9.56c5.02,0,8.23,2.72,8.23,7.52,0,4.54-3.11,7.55-8.26,7.52h-6v8.59h-3.53v-23.63Zm14.2,7.62c0-3.14-2.14-4.57-5.19-4.57h-5.48v9.17h5.48c3.08.03,5.19-1.46,5.19-4.6Z"/>
    <path class="cls-1" d="m73.6,132.36h3.53v10.11h13.22v-10.11h3.53v23.63h-3.53v-10.44h-13.22v10.44h-3.53v-23.63Z"/>
    <path class="cls-1" d="m105.27,132.36h4.96l8.39,23.63h-3.69l-1.94-5.51h-10.47l-1.94,5.51h-3.69l8.39-23.63Zm6.84,15.36l-2.59-7.29-1.65-4.83h-.19l-1.65,4.83-2.66,7.29h8.75Z"/>
    <path class="cls-1" d="m127.31,148.59h3.63c.06,3.01,1.81,4.89,5.83,4.89,3.31,0,5.51-1.2,5.51-3.7,0-2.82-1.59-3.6-6.22-4.38-5.41-.94-8.2-2.53-8.2-6.58s3.27-6.74,8.69-6.74,8.59,2.75,8.65,6.9h-3.6c-.1-2.82-2.14-4.18-5.19-4.18s-4.89,1.39-4.89,3.53c0,2.62,1.78,3.14,6.32,3.95,4.18.68,8.1,1.72,8.1,7.16,0,4.05-3.21,6.81-9.24,6.81s-9.33-3.14-9.4-7.68Z"/>
    <path class="cls-1" d="m148.93,144.19c0-7.49,4.63-12.09,11.57-12.09,5.83,0,10.01,3.21,10.73,8.17h-3.56c-.65-3.01-3.31-5.12-7.16-5.12-4.89,0-7.94,3.27-7.94,9.04s3.05,9.04,7.94,9.04c3.82,0,6.58-2.07,7.16-5.25l3.56.03c-.62,4.99-4.89,8.26-10.73,8.26-6.97,0-11.57-4.63-11.57-12.09Z"/>
    <path class="cls-1" d="m174.34,144.19c0-7.52,4.63-12.09,11.64-12.09s11.67,4.57,11.67,12.09-4.67,12.09-11.67,12.09-11.64-4.6-11.64-12.09Zm19.67,0c0-5.74-3.11-9.04-8.04-9.04s-8.01,3.31-8.01,9.04,3.11,9.04,8.01,9.04,8.04-3.34,8.04-9.04Z"/>
    <path class="cls-1" d="m201.76,132.36h11.02c5.19,0,7.84,2.33,7.84,6.51,0,2.85-1.49,4.99-4.18,5.7v.23c2.56.45,3.63,1.98,3.63,4.67v3.95c0,.81,0,1.69.39,2.56h-3.56c-.29-.62-.36-1.52-.36-2.62v-3.27c0-2.4-.88-3.66-4.21-3.66h-7.03v9.56h-3.53v-23.63Zm10.53,11.21c3.37,0,4.7-1.78,4.7-4.25,0-2.82-1.88-3.99-4.7-3.99h-7v8.23h7Z"/>
    <path class="cls-1" d="m225.1,132.36h16.56v3.05h-13.03v7.1h11.44v2.85h-11.44v7.55h13.06v3.08h-16.59v-23.63Z"/>
    <path class="cls-1" d="m258.29,135.44h-7.42v-3.08h18.44v3.08h-7.49v20.55h-3.53v-20.55Z"/>
    <path class="cls-1" d="m272.49,132.36h11.02c5.19,0,7.84,2.33,7.84,6.51,0,2.85-1.49,4.99-4.18,5.7v.23c2.56.45,3.63,1.98,3.63,4.67v3.95c0,.81,0,1.69.39,2.56h-3.57c-.29-.62-.36-1.52-.36-2.62v-3.27c0-2.4-.88-3.66-4.21-3.66h-7.03v9.56h-3.53v-23.63Zm10.53,11.21c3.37,0,4.7-1.78,4.7-4.25,0-2.82-1.88-3.99-4.7-3.99h-7v8.23h7Z"/>
    <path class="cls-1" d="m301.46,132.36h4.96l8.39,23.63h-3.69l-1.94-5.51h-10.47l-1.94,5.51h-3.69l8.39-23.63Zm6.84,15.36l-2.59-7.29-1.65-4.83h-.19l-1.65,4.83-2.66,7.29h8.75Z"/>
    <path class="cls-1" d="m317.73,132.36h3.53v23.63h-3.53v-23.63Z"/>
    <path class="cls-1" d="m327,132.36h4.34l12.22,18.93h.23l-.2-7.91v-11.02h3.44v23.63h-4.15l-12.22-18.7h-.19l.13,7.36v11.34h-3.6v-23.63Z"/>
    <path class="cls-1" d="m352.74,132.36h3.53v23.63h-3.53v-23.63Z"/>
    <path class="cls-1" d="m362.01,132.36h4.34l12.22,18.93h.23l-.2-7.91v-11.02h3.44v23.63h-4.15l-12.22-18.7h-.19l.13,7.36v11.34h-3.6v-23.63Z"/>
    <path class="cls-1" d="m386.19,144.19c0-7.52,4.7-12.09,11.67-12.09,6,0,10.14,3.21,10.76,8.1h-3.63c-.62-3.24-3.47-5.02-7.13-5.02-4.86,0-8.07,3.24-8.07,8.98s3.11,9.11,8.01,9.11c4.5,0,7.52-2.59,7.75-6.97h-7.52v-2.62h11.12v1.72c0,6.68-4.54,10.89-11.41,10.89s-11.54-4.86-11.54-12.09Z"/>
  </g>
  <g>
    <g>
      <path class="cls-3" d="m191.63,89.78c-3.34,5.77-15.57,3.8-30.74,2.55.91-11.86,6.09-22.53,14-30.46,9.63,14.37,20.07,22.15,16.74,27.91Z"/>
      <path class="cls-3" d="m257.37,90.65c-16.6,1.3-28.07,6.08-31.31.46-3.62-6.27,5.93-17.06,15.4-31.18,8.67,7.73,14.55,18.55,15.91,30.73Z"/>
      <g>
        <path class="cls-6" d="m299.3,85.67c-.03-.06-.06-.14-.08-.2-1.57-3.72-5.54-3.97-9.56-4.1-32.46-1.06-40.18-8.11-23.39-40.51,1.85-3.58,3.66-7.12,1.23-10.33-.05-.06-.1-.13-.14-.18-2.81-3.69-10.37-5.12-11.42-.61-2.62,11.16-8.54,21.33-14.48,30.19-9.47,14.12-19.02,24.91-15.4,31.18,3.24,5.62,14.71.85,31.31-.46,10.49-.83,23.02-.26,36.83,5.19,4.27,1.68,6.87-5.93,5.11-10.17Zm-18.58-41.75c-9.11.78-17.17,17.68-13.9,23.37,3.68,6.36,22.17,7.53,27.4.03,8.06-11.59.55-24.58-13.5-23.4Z"/>
        <path class="cls-4" d="m174.9,61.87c-5.71-8.52-11.13-19.36-13.23-33.47-.68-4.53-8.57-2.99-11.35.67-.04.06-.08.12-.14.18-2.44,3.21-.67,6.77,1.24,10.33,15.32,28.64,13.06,38.84-23.4,40.51-4.02.18-8,.38-9.56,4.1-.02.07-.05.14-.08.21-1.79,4.26.76,11.52,5.19,10.19,12.36-3.74,25.71-3.21,37.34-2.26,15.17,1.25,27.4,3.22,30.74-2.55,3.34-5.76-7.11-13.54-16.74-27.91Zm-37.95-19.24c-14.06-1.19-21.57,11.82-13.5,23.4,5.23,7.5,23.9,6.03,27.18.35,3.68-6.36-4.55-22.96-13.67-23.75Z"/>
        <path class="cls-5" d="m241.15,14.37c-.07-.01-.15-.02-.22-.03-4-.5-6.21,2.81-8.34,6.23-17.14,27.59-27.1,30.74-46.77,0-2.18-3.39-4.33-6.73-8.34-6.23-.07.01-.15.02-.22.03-4.59.58-9.61,6.42-6.24,9.59,8.37,7.86,14.21,18.07,18.92,27.66,7.48,15.25,12.05,28.89,19.29,28.89s8.26-13.78,16.57-29.96c4.5-8.78,11.05-18.28,21.61-26.67,3.59-2.86-1.69-8.92-6.25-9.5Zm-18.44-4.79c-6-12.77-21.01-12.77-27.01,0-3.89,8.27,6.73,23.7,13.28,23.7,7.34,0,17.61-15.43,13.73-23.7Z"/>
      </g>
    </g>
    <path class="cls-2" d="m106.84,120.36s92.77-45.56,206.12,0c0,0-103.09-27.51-206.12,0Z"/>
  </g>
</svg>